<svg xmlns="http://www.w3.org/2000/svg" width="900" height="240" viewBox="0 0 900 240" role="img" aria-labelledby="t d">
<title id="t">media-toolkit</title>
<desc id="d">Tidy up a self-hosted film and TV library, safely: nothing deleted, nothing changed until you say so.</desc>
<defs><linearGradient id="g" x1="0" y1="0" x2="1" y2="1"><stop offset="0" stop-color="#1B1712"/><stop offset="1" stop-color="#0F1B2D"/></linearGradient></defs>
<rect x="1" y="1" width="898" height="238" rx="18" fill="url(#g)" stroke="#30363D"/>
<g>
<rect x="48" y="48" width="144" height="144" rx="26" fill="#F59E0B"/>
<rect x="62" y="58" width="12" height="9" rx="2" fill="#1B1712" opacity=".85"/><rect x="62" y="173" width="12" height="9" rx="2" fill="#1B1712" opacity=".85"/><rect x="84" y="58" width="12" height="9" rx="2" fill="#1B1712" opacity=".85"/><rect x="84" y="173" width="12" height="9" rx="2" fill="#1B1712" opacity=".85"/><rect x="106" y="58" width="12" height="9" rx="2" fill="#1B1712" opacity=".85"/><rect x="106" y="173" width="12" height="9" rx="2" fill="#1B1712" opacity=".85"/><rect x="128" y="58" width="12" height="9" rx="2" fill="#1B1712" opacity=".85"/><rect x="128" y="173" width="12" height="9" rx="2" fill="#1B1712" opacity=".85"/><rect x="150" y="58" width="12" height="9" rx="2" fill="#1B1712" opacity=".85"/><rect x="150" y="173" width="12" height="9" rx="2" fill="#1B1712" opacity=".85"/>
<rect x="62" y="78" width="116" height="84" rx="8" fill="#1B1712" opacity=".12"/>
<path d="M92 121 l18 18 l38 -40" fill="none" stroke="#1B1712" stroke-width="13" stroke-linecap="round" stroke-linejoin="round"/>
</g>
<text x="260" y="98" font-family="-apple-system, BlinkMacSystemFont, 'Segoe UI', Helvetica, Arial, sans-serif" font-size="46" font-weight="700" fill="#F0F6FC" letter-spacing="-0.5">media-toolkit</text>
<text x="262" y="132" font-family="-apple-system, BlinkMacSystemFont, 'Segoe UI', Helvetica, Arial, sans-serif" font-size="19" fill="#B7C0CC">Tidy up a self-hosted film &amp; TV library, safely.</text>
<text x="262" y="154" font-family="-apple-system, BlinkMacSystemFont, 'Segoe UI', Helvetica, Arial, sans-serif" font-size="15" fill="#6E7681">Nothing deleted. Nothing changed until you say so. Watched history kept.</text>
<g transform="translate(262,166)"><rect width="152" height="30" rx="15" fill="#161B22" stroke="#30363D"/><text x="14" y="20" font-family="ui-monospace, SFMono-Regular, Menlo, Consolas, 'Liberation Mono', monospace" font-size="14" font-weight="600" fill="#E6EDF3">mkvkit<tspan font-family="-apple-system, BlinkMacSystemFont, 'Segoe UI', Helvetica, Arial, sans-serif" font-weight="400" fill="#B7C0CC" dx="8">the files</tspan></text></g><g transform="translate(426,166)"><rect width="151" height="30" rx="15" fill="#161B22" stroke="#30363D"/><text x="14" y="20" font-family="ui-monospace, SFMono-Regular, Menlo, Consolas, 'Liberation Mono', monospace" font-size="14" font-weight="600" fill="#E6EDF3">jfkit<tspan font-family="-apple-system, BlinkMacSystemFont, 'Segoe UI', Helvetica, Arial, sans-serif" font-weight="400" fill="#B7C0CC" dx="8">the server</tspan></text></g><g transform="translate(589,166)"><rect width="162" height="30" rx="15" fill="#161B22" stroke="#30363D"/><text x="14" y="20" font-family="ui-monospace, SFMono-Regular, Menlo, Consolas, 'Liberation Mono', monospace" font-size="14" font-weight="600" fill="#E6EDF3">dubalign<tspan font-family="-apple-system, BlinkMacSystemFont, 'Segoe UI', Helvetica, Arial, sans-serif" font-weight="400" fill="#B7C0CC" dx="8">the dubs</tspan></text></g>
</svg>
